<svg id="Layer_1" data-name="Layer 1" xmlns="http://www.w3.org/2000/svg" viewBox="0 0 84.5 23.2"><defs><style>.cls-1,.cls-3{fill:#fff;}.cls-1{stroke:#fff;stroke-miterlimit:10;stroke-width:0.5px;}.cls-2{isolation:isolate;}</style></defs><title>logo-white</title><path class="cls-1" d="M27.4,18.7,21.5,1.9a.51.51,0,0,0-.5-.4H19.3c-.1,0-.2.1-.3.1l-.1.2v.1L13.5,18.6,8.4,2.9h-1L13,20.4l-.9,2.8H9.6L2.7,2.9H1.6l7.1,21a.55.55,0,0,0,.5.3h3.2c.3,0,.5-.2.5-.3L14,20.6v-.1l3.6-11,5.1,14.4a.55.55,0,0,0,.5.3h3.3a.62.62,0,0,0,.5-.3l1.1-3.3a.1.1,0,0,1,.1-.1l5-17.7H32ZM26,23.2H23.5L18.1,7.9l1.7-5.2h.8l6.3,17.8Z" transform="translate(-1.25 -1.25)"/><g class="cls-2"><path class="cls-3" d="M44.35,9.93c.13,0,.19.08.15.2l-2.17,7.65a.19.19,0,0,1-.2.15h-.81a.19.19,0,0,1-.2-.15l-1.78-6.44h-.09l-1.77,6.44a.19.19,0,0,1-.2.15h-.81a.19.19,0,0,1-.2-.15l-2.18-7.65c0-.12,0-.2.15-.2h.63a.19.19,0,0,1,.2.15l1.78,6.24h.09l1.75-6.24a.19.19,0,0,1,.2-.15h.81a.19.19,0,0,1,.2.15l1.75,6.24h.1l1.77-6.24a.19.19,0,0,1,.2-.15Z" transform="translate(-1.25 -1.25)"/><path class="cls-3" d="M50.54,17a.16.16,0,0,1,.18.18v.53a.16.16,0,0,1-.18.18H45.7a.16.16,0,0,1-.18-.18l0-7.65a.16.16,0,0,1,.18-.18h4.79a.16.16,0,0,1,.18.18v.53a.16.16,0,0,1-.18.18h-4l0,2.49H50a.16.16,0,0,1,.18.18V14a.16.16,0,0,1-.18.18H46.55l0,2.86Z" transform="translate(-1.25 -1.25)"/><path class="cls-3" d="M57.11,17a.16.16,0,0,1,.18.18v.53a.16.16,0,0,1-.18.18H52.19a.16.16,0,0,1-.18-.18l0-7.65a.16.16,0,0,1,.18-.18h.61a.16.16,0,0,1,.18.18l0,6.94Z" transform="translate(-1.25 -1.25)"/><path class="cls-3" d="M63.38,17a.16.16,0,0,1,.18.18v.53a.16.16,0,0,1-.18.18H58.54a.16.16,0,0,1-.18-.18l0-7.65a.16.16,0,0,1,.18-.18h4.79a.16.16,0,0,1,.18.18v.53a.16.16,0,0,1-.18.18h-4l0,2.49H62.8a.16.16,0,0,1,.18.18V14a.16.16,0,0,1-.18.18H59.38l0,2.86Z" transform="translate(-1.25 -1.25)"/><path class="cls-3" d="M66.14,15.45l-.84,2.33a.2.2,0,0,1-.21.14h-.64c-.13,0-.19-.08-.14-.2l2.83-7.66a.2.2,0,0,1,.21-.14h.76a.19.19,0,0,1,.21.14l2.83,7.66c0,.12,0,.2-.14.2h-.64a.2.2,0,0,1-.21-.14l-.84-2.33Zm1.62-4.33H67.7l-1.24,3.45H69Z" transform="translate(-1.25 -1.25)"/><path class="cls-3" d="M73.2,14.39l0,3.36a.16.16,0,0,1-.18.18h-.69a.16.16,0,0,1-.18-.18l0-7.65a.16.16,0,0,1,.18-.18h3a2.23,2.23,0,1,1,.47,4.43l2.37,3.36c.09.11,0,.21-.11.21h-.84a.24.24,0,0,1-.21-.11l-2.31-3.42Zm2.13-.86c1.13,0,1.71-.53,1.71-1.34s-.64-1.41-1.71-1.41H73.18v2.75Z" transform="translate(-1.25 -1.25)"/><path class="cls-3" d="M85.75,17.75a.16.16,0,0,1-.18.18h-.92a.21.21,0,0,1-.21-.12l-4-6.78,0,6.72a.16.16,0,0,1-.18.18h-.67a.16.16,0,0,1-.18-.18l0-7.65a.16.16,0,0,1,.18-.18h1a.21.21,0,0,1,.21.12l3.95,6.58,0-6.52a.16.16,0,0,1,.18-.18h.59a.16.16,0,0,1,.18.18Z" transform="translate(-1.25 -1.25)"/></g></svg>