<svg id="Layer_1" data-name="Layer 1" xmlns="http://www.w3.org/2000/svg" viewBox="0 0 84.53 23.18"><defs><style>.cls-1,.cls-2{fill:#010101;}.cls-1{stroke:#030203;stroke-miterlimit:10;stroke-width:0.5px;}</style></defs><title>logo</title><path class="cls-1" d="M27.55,19.29,21.6,2.56a.5.5,0,0,0-.48-.38H19.39a.65.65,0,0,0-.26.13L19,2.5s0,0,0,.06L13.63,19.29,8.57,3.49H7.51L13.09,21l-.86,2.75H9.73L2.82,3.49H1.7l7.14,21a.49.49,0,0,0,.51.32h3.23a.53.53,0,0,0,.51-.32l1.06-3.29v-.06l3.55-11,5.12,14.39a.48.48,0,0,0,.48.32h3.26a.51.51,0,0,0,.48-.32l1.06-3.29a.07.07,0,0,1,.06-.06l5-17.68H32.08ZM26.17,23.8H23.71L18.24,8.48,19.9,3.23h.83L27,21Z" transform="translate(-1.35 -1.93)"/><path class="cls-2" d="M44.47,10.54c.13,0,.19.08.15.2l-2.17,7.65a.19.19,0,0,1-.2.15h-.81a.19.19,0,0,1-.2-.15l-1.78-6.44h-.09l-1.77,6.44a.19.19,0,0,1-.2.15H36.6a.19.19,0,0,1-.2-.15l-2.18-7.65c0-.12,0-.2.15-.2H35a.19.19,0,0,1,.2.15L37,16.93h.09l1.75-6.24a.19.19,0,0,1,.2-.15h.81a.19.19,0,0,1,.2.15l1.75,6.24h.1l1.77-6.24a.19.19,0,0,1,.2-.15Z" transform="translate(-1.35 -1.93)"/><path class="cls-2" d="M50.66,17.66a.16.16,0,0,1,.18.18v.53a.16.16,0,0,1-.18.18H45.82a.16.16,0,0,1-.18-.18l0-7.65a.16.16,0,0,1,.18-.18h4.79a.16.16,0,0,1,.18.18v.53a.16.16,0,0,1-.18.18h-4l0,2.49h3.42a.16.16,0,0,1,.18.18v.54a.16.16,0,0,1-.18.18H46.67l0,2.86Z" transform="translate(-1.35 -1.93)"/><path class="cls-2" d="M57.23,17.66a.16.16,0,0,1,.18.18v.53a.16.16,0,0,1-.18.18H52.31a.16.16,0,0,1-.18-.18l0-7.65a.16.16,0,0,1,.18-.18H53a.16.16,0,0,1,.18.18l0,6.94Z" transform="translate(-1.35 -1.93)"/><path class="cls-2" d="M63.5,17.66a.16.16,0,0,1,.18.18v.53a.16.16,0,0,1-.18.18H58.66a.16.16,0,0,1-.18-.18l0-7.65a.16.16,0,0,1,.18-.18h4.79a.16.16,0,0,1,.18.18v.53a.16.16,0,0,1-.18.18h-4l0,2.49h3.42a.16.16,0,0,1,.18.18v.54a.16.16,0,0,1-.18.18H59.51l0,2.86Z" transform="translate(-1.35 -1.93)"/><path class="cls-2" d="M66.26,16.06l-.84,2.33a.2.2,0,0,1-.21.14h-.64c-.13,0-.19-.08-.14-.2l2.83-7.66a.2.2,0,0,1,.21-.14h.76a.19.19,0,0,1,.21.14l2.83,7.66c0,.12,0,.2-.14.2h-.64a.2.2,0,0,1-.21-.14l-.84-2.33Zm1.62-4.33h-.05l-1.24,3.45h2.54Z" transform="translate(-1.35 -1.93)"/><path class="cls-2" d="M73.32,15l0,3.36a.16.16,0,0,1-.18.18h-.69a.16.16,0,0,1-.18-.18l0-7.65a.16.16,0,0,1,.18-.18h3A2.23,2.23,0,1,1,76,15l2.37,3.36c.09.11,0,.21-.11.21h-.84a.24.24,0,0,1-.21-.11L74.94,15Zm2.13-.86c1.13,0,1.71-.53,1.71-1.34s-.64-1.41-1.71-1.41H73.3v2.75Z" transform="translate(-1.35 -1.93)"/><path class="cls-2" d="M85.88,18.36a.16.16,0,0,1-.18.18h-.92a.21.21,0,0,1-.21-.12l-4-6.78,0,6.72a.16.16,0,0,1-.18.18H79.7a.16.16,0,0,1-.18-.18l0-7.65a.16.16,0,0,1,.18-.18h1a.21.21,0,0,1,.21.12l3.95,6.58,0-6.52a.16.16,0,0,1,.18-.18h.59a.16.16,0,0,1,.18.18Z" transform="translate(-1.35 -1.93)"/></svg>