<svg id="Layer_1" data-name="Layer 1" xmlns="http://www.w3.org/2000/svg" viewBox="0 0 50.72 36.59"><defs><style>.cls-1{fill:#fff;stroke:#fff;stroke-miterlimit:10;stroke-width:2px;}</style></defs><title>logo-icon</title><path class="cls-1" d="M40.43,34.45,31.36,8.94a.76.76,0,0,0-.73-.59H28a1,1,0,0,0-.39.2l-.15.29s0,0,0,.1l-8.2,25.51L11.48,10.36H9.87l8.51,26.78-1.32,4.2H13.26l-10.55-31H1L11.89,42.45a.75.75,0,0,0,.78.49H17.6a.81.81,0,0,0,.78-.49l1.61-5v-.1L25.4,20.5l7.81,22a.73.73,0,0,0,.73.49h5a.78.78,0,0,0,.73-.49l1.61-5a.1.1,0,0,1,.1-.1l7.64-27H47.34Zm-2.1,6.88H34.57L26.23,18l2.54-8H30l9.61,27.17Z" transform="translate(0.4 -7.35)"/></svg>