<svg width="580" height="400" xmlns="http://www.w3.org/2000/svg">
 <!-- Created with Method Draw - http://github.com/duopixel/Method-Draw/ -->
 <g>
  <title>background</title>
  <rect fill="#fff" id="canvas_background" height="402" width="582" y="-1" x="-1"/>
 </g>
 <g>
  <title>Layer 1</title>
  <path stroke="null" id="svg_1" d="m472.193018,301.60505l-108.836207,-289.773232a9.1459,8.660288 0 0 0 -8.780064,-6.581819l-31.644813,0a11.88967,11.258374 0 0 0 -4.755868,2.251675l-2.377934,3.290909s0,0 0,1.039235l-98.226964,289.773232l-92.556506,-273.665096l-19.389308,0l102.068241,303.283281l-15.730948,47.631583l-45.729499,0l-126.396335,-350.914864l-20.486815,0l130.603449,363.73209a8.962982,8.487082 0 0 0 9.328818,5.542584l59.082513,0a9.694654,9.179905 0 0 0 9.328818,-5.542584l19.389308,-56.984694l0,-1.039235l64.935888,-190.526333l93.654014,249.243085a8.780064,8.313876 0 0 0 8.780064,5.542584l59.631267,0a9.328818,8.833494 0 0 0 8.780064,-5.542584l19.389308,-56.984694a1.280426,1.21244 0 0 1 1.097508,-1.039235l91.458998,-306.227779l-19.755144,0l-82.861852,273.491891zm-25.242683,78.115796l-44.997827,0l-100.056144,-265.35122l30.364387,-90.933022l15.182194,0l114.689583,307.78663l-15.182194,48.497612z" class="cls-1"/>
 </g>
</svg>